<svg width="64" height="64" viewBox="0 0 64 64" version="1.1" xmlns="http://www.w3.org/2000/svg" xmlns:xlink="http://www.w3.org/1999/xlink" xmlns:figma="http://www.figma.com/figma/ns">
<title>email</title>
<desc>Created using Figma</desc>
<g id="Canvas" transform="translate(-368 -160)" figma:type="canvas">
<mask id="mask0_alpha" mask-type="alpha">
<path d="M 368 160L 432 160L 432 224L 368 224L 368 160Z" fill="#FFFFFF"/>
</mask>
<g id="email" style="mix-blend-mode:normal;" mask="url(#mask0_alpha)" figma:type="frame">
<g id="Group" style="mix-blend-mode:normal;" figma:type="frame">
<mask id="mask1_alpha" mask-type="alpha">
<g id="Rectangle" style="mix-blend-mode:normal;" figma:type="rounded-rectangle">
<use xlink:href="#path0_fill" transform="translate(384 183)" fill="#C4C4C4" style="mix-blend-mode:normal;"/>
</g>
</mask>
<g id="Union" style="mix-blend-mode:normal;" mask="url(#mask1_alpha)" figma:type="vector">
<use xlink:href="#path1_fill" transform="translate(383.658 182.699)" fill="#EB5757" style="mix-blend-mode:normal;"/>
</g>
<g id="Rectangle" style="mix-blend-mode:normal;" mask="url(#mask1_alpha)" figma:type="rounded-rectangle">
<mask id="mask2_outline_ins">
<use xlink:href="#path0_fill" fill="white" transform="translate(384 183)"/>
</mask>
<g mask="url(#mask2_outline_ins)">
<use xlink:href="#path2_stroke_2x" transform="translate(384 183)" fill="#EB5757" style="mix-blend-mode:normal;"/>
</g>
</g>
</g>
</g>
</g>
<defs>
<path id="path0_fill" d="M 0 2C 0 0.895431 0.895431 0 2 0L 30 0C 31.1046 0 32 0.895431 32 2L 32 17C 32 18.1046 31.1046 19 30 19L 2 19C 0.895431 19 0 18.1046 0 17L 0 2Z"/>
<path id="path1_fill" d="M 16 12.994L 14.2887 11.6686L 4.69553 19.5934L 3.98843 19.0093L 13.5588 11.1034L 0 0.602662L 0.68396 0L 16.342 12.1265L 32 0L 32.684 0.602662L 19.1252 11.1034L 28.6955 19.0093L 27.9884 19.5934L 18.3953 11.6686L 16.684 12.994L 16.342 13.2588L 16 12.994Z"/>
<path id="path2_stroke_2x" d="M 2 1L 30 1L 30 -1L 2 -1L 2 1ZM 31 2L 31 17L 33 17L 33 2L 31 2ZM 30 18L 2 18L 2 20L 30 20L 30 18ZM 1 17L 1 2L -1 2L -1 17L 1 17ZM 2 -1C 0.343146 -1 -1 0.343146 -1 2L 1 2C 1 1.44772 1.44772 1 2 1L 2 -1ZM 30 1C 30.5523 1 31 1.44772 31 2L 33 2C 33 0.343146 31.6569 -1 30 -1L 30 1ZM 31 17C 31 17.5523 30.5523 18 30 18L 30 20C 31.6569 20 33 18.6569 33 17L 31 17ZM 2 18C 1.44772 18 1 17.5523 1 17L -1 17C -1 18.6569 0.343146 20 2 20L 2 18Z"/>
</defs>
</svg>
