<svg width="64" height="64" viewBox="0 0 64 64" version="1.1" xmlns="http://www.w3.org/2000/svg" xmlns:xlink="http://www.w3.org/1999/xlink" xmlns:figma="http://www.figma.com/figma/ns">
<title>video</title>
<desc>Created using Figma</desc>
<g id="Canvas" transform="translate(-9881 -10668)" figma:type="canvas">
<mask id="mask0_alpha" mask-type="alpha">
<path d="M 9881 10668L 9945 10668L 9945 10732L 9881 10732L 9881 10668Z" fill="#FFFFFF"/>
</mask>
<g id="video" style="mix-blend-mode:normal;" mask="url(#mask0_alpha)" figma:type="frame">
<g id="Polygon 3" style="mix-blend-mode:normal;" figma:type="vector">
<mask id="mask1_outline_ins">
<use xlink:href="#path0_fill" fill="white" transform="matrix(6.12323e-17 1 -1 6.12323e-17 9925 10688)"/>
</mask>
<g mask="url(#mask1_outline_ins)">
<use xlink:href="#path1_stroke_2x" transform="matrix(6.12323e-17 1 -1 6.12323e-17 9925 10688)" fill="#EB5757" style="mix-blend-mode:normal;"/>
</g>
</g>
</g>
</g>
<defs>
<path id="path0_fill" d="M 12 0L 24 24L 0 24L 12 0Z"/>
<path id="path1_stroke_2x" d="M 12 0L 12.8944 -0.447214L 12 -2.23607L 11.1056 -0.447214L 12 0ZM 24 24L 24 25L 25.618 25L 24.8944 23.5528L 24 24ZM 0 24L -0.894427 23.5528L -1.61803 25L 0 25L 0 24ZM 11.1056 0.447214L 23.1056 24.4472L 24.8944 23.5528L 12.8944 -0.447214L 11.1056 0.447214ZM 24 23L 0 23L 0 25L 24 25L 24 23ZM 0.894427 24.4472L 12.8944 0.447214L 11.1056 -0.447214L -0.894427 23.5528L 0.894427 24.4472Z"/>
</defs>
</svg>
