<svg width="64" height="64" viewBox="0 0 64 64" version="1.1" xmlns="http://www.w3.org/2000/svg" xmlns:xlink="http://www.w3.org/1999/xlink" xmlns:figma="http://www.figma.com/figma/ns">
<title>website</title>
<desc>Created using Figma</desc>
<g id="Canvas" transform="translate(-9881 -10588)" figma:type="canvas">
<mask id="mask0_alpha" mask-type="alpha">
<path d="M 9881 10588L 9945 10588L 9945 10652L 9881 10652L 9881 10588Z" fill="#FFFFFF"/>
</mask>
<g id="website" style="mix-blend-mode:normal;" mask="url(#mask0_alpha)" figma:type="frame">
<g id="Union" style="mix-blend-mode:normal;" figma:type="vector">
<use xlink:href="#path0_fill" transform="translate(9897 10604)" fill="#0080FF" style="mix-blend-mode:normal;"/>
</g>
</g>
</g>
<defs>
<path id="path0_fill" fill-rule="evenodd" d="M 16 0C 24.5688 0 31.5633 6.73516 31.9805 15.2L 32 15.2L 32 16C 32 24.8367 24.8367 32 16 32C 7.16328 32 0 24.8367 0 16C 0 7.16328 7.16328 0 16 0ZM 16.4 31.1945C 18.282 31.1461 20.0789 30.7555 21.7305 30.0828C 22.7008 28.6125 23.5047 27.0672 24.1414 25.4727C 21.6258 26.2891 19.0148 26.7172 16.4 26.757L 16.4 31.1945ZM 16.4 25.957L 16.4 16L 25.9602 16C 25.9602 18.8773 25.475 21.7555 24.5047 24.5047C 21.8828 25.4297 19.1438 25.9141 16.4 25.957ZM 25.1305 25.1297C 24.5805 26.6188 23.8914 28.0695 23.0633 29.4625C 25.7906 28.0289 28.0289 25.7906 29.4625 23.0633C 28.0695 23.8914 26.6195 24.5797 25.1305 25.1297ZM 30.0828 21.7305C 28.6133 22.7008 27.0672 23.5039 25.4727 24.1406C 26.3305 21.4969 26.7602 18.7484 26.7602 16L 31.2 16C 31.2 18.0273 30.8031 19.9617 30.0828 21.7305ZM 15.6 25.957C 12.8563 25.9141 10.1172 25.4297 7.49531 24.5047C 6.52578 21.7555 6.04063 18.8773 6.04063 16L 15.6 16L 15.6 25.957ZM 7.85938 25.4727C 10.375 26.2891 12.9852 26.7172 15.6 26.757L 15.6 31.1945C 13.718 31.1461 11.9211 30.7555 10.2695 30.0828C 9.29922 28.6125 8.49609 27.0672 7.85938 25.4727ZM 6.52734 24.1406C 5.66953 21.4969 5.23984 18.7484 5.23984 16L 0.8 16C 0.8 18.0273 1.19687 19.9617 1.91719 21.7305C 3.38672 22.7008 4.93281 23.5039 6.52734 24.1406ZM 2.5375 23.0633C 3.93047 23.8914 5.38047 24.5797 6.86953 25.1297C 7.41953 26.6188 8.10859 28.0695 8.93672 29.4625C 6.20938 28.0289 3.97109 25.7906 2.5375 23.0633ZM 31.1797 15.2L 26.7477 15.2C 26.6727 12.7188 26.2477 10.2461 25.4727 7.85859C 27.0672 8.49531 28.6125 9.29922 30.0828 10.2695C 30.7078 11.8039 31.0898 13.4633 31.1797 15.2ZM 16.4 6.04297C 19.1445 6.08594 21.8828 6.56953 24.5047 7.49453C 25.3852 9.98906 25.8664 12.5898 25.9477 15.2L 16.4 15.2L 16.4 6.04297ZM 16.4 5.24297C 19.0148 5.28281 21.625 5.71016 24.1406 6.52656C 23.5039 4.93203 22.7008 3.3875 21.7305 1.91797C 20.0789 1.24531 18.282 0.853906 16.4 0.805469L 16.4 5.24297ZM 29.4633 8.93672C 28.0703 8.10859 26.6188 7.41953 25.1297 6.86953C 24.5797 5.38047 23.8914 3.93047 23.0633 2.5375C 25.7906 3.97109 28.0297 6.20938 29.4633 8.93672ZM 6.05234 15.2L 15.6 15.2L 15.6 6.04297C 12.8555 6.08594 10.1172 6.56953 7.49531 7.49453C 6.61484 9.98906 6.13359 12.5898 6.05234 15.2ZM 7.85938 6.52656C 10.375 5.71016 12.9852 5.28281 15.6 5.24297L 15.6 0.805469C 13.718 0.853906 11.9211 1.24531 10.2695 1.91797C 9.29922 3.3875 8.49609 4.93203 7.85938 6.52656ZM 8.93672 2.5375C 8.10859 3.93047 7.42031 5.38047 6.87031 6.86953C 5.38125 7.41953 3.92969 8.10859 2.53672 8.93672C 3.97031 6.20938 6.20938 3.97109 8.93672 2.5375ZM 6.52734 7.85859C 5.75234 10.2461 5.32734 12.7188 5.25234 15.2L 0.820312 15.2C 0.910156 13.4633 1.29219 11.8039 1.91719 10.2695C 3.3875 9.29922 4.93281 8.49531 6.52734 7.85859Z"/>
</defs>
</svg>
