<svg width="64" height="64" viewBox="0 0 64 64" version="1.1" xmlns="http://www.w3.org/2000/svg" xmlns:xlink="http://www.w3.org/1999/xlink" xmlns:figma="http://www.figma.com/figma/ns">
<title>podcast</title>
<desc>Created using Figma</desc>
<g id="Canvas" transform="translate(-9464 -10668)" figma:type="canvas">
<mask id="mask0_alpha" mask-type="alpha">
<path d="M 9464 10668L 9528 10668L 9528 10732L 9464 10732L 9464 10668Z" fill="#FFFFFF"/>
</mask>
<g id="podcast" style="mix-blend-mode:normal;" mask="url(#mask0_alpha)" figma:type="frame">
<g id="Group" style="mix-blend-mode:normal;" figma:type="frame">
<g id="Vector" style="mix-blend-mode:normal;" figma:type="vector">
<use xlink:href="#path0_stroke" transform="translate(9491 10683)" fill="#2F80ED" style="mix-blend-mode:normal;"/>
</g>
<g id="Group" style="mix-blend-mode:normal;" figma:type="frame">
<g id="Vector" style="mix-blend-mode:normal;" figma:type="vector">
<use xlink:href="#path1_stroke" transform="translate(9483.65 10696)" fill="#2F80ED" style="mix-blend-mode:normal;"/>
</g>
<g id="Vector" style="mix-blend-mode:normal;" figma:type="vector">
<use xlink:href="#path2_stroke" transform="translate(9495.58 10706.8)" fill="#2F80ED" style="mix-blend-mode:normal;"/>
</g>
<g id="Vector" style="mix-blend-mode:normal;" figma:type="vector">
<use xlink:href="#path3_stroke" transform="translate(9492.78 10717.9)" fill="#2F80ED" style="mix-blend-mode:normal;"/>
</g>
</g>
</g>
</g>
</g>
<defs>
<path id="path0_stroke" d="M 8.62884 4.44726L 8.62884 15.2068L 9.62884 15.2068L 9.62884 4.44726L 8.62884 4.44726ZM 8.62884 15.2068C 8.62884 17.3572 6.80368 19.154 4.56442 19.154L 4.56442 20.154C 7.33129 20.154 9.62884 17.9339 9.62884 15.2068L 8.62884 15.2068ZM 4.56442 19.154C 2.32516 19.154 0.5 17.3572 0.5 15.2068L -0.5 15.2068C -0.5 17.9339 1.79754 20.154 4.56442 20.154L 4.56442 19.154ZM 0.5 15.2068L 0.5 4.44726L -0.5 4.44726L -0.5 15.2068L 0.5 15.2068ZM 0.5 4.44726C 0.5 2.29676 2.32516 0.5 4.56442 0.5L 4.56442 -0.5C 1.79754 -0.5 -0.5 1.72012 -0.5 4.44726L 0.5 4.44726ZM 4.56442 0.5C 6.66698 0.5 8.62884 2.30692 8.62884 4.44726L 9.62884 4.44726C 9.62884 1.70996 7.17351 -0.5 4.56442 -0.5L 4.56442 0.5Z"/>
<path id="path1_stroke" d="M 24 0.499999C 24.2761 0.499999 24.5 0.276142 24.5 -5.47256e-07C 24.5 -0.276143 24.2761 -0.500001 24 -0.500001L 24 0.499999ZM 19.8773 -5.47256e-07L 19.8773 -0.500001L 19.3773 -0.500001L 19.3773 -5.47256e-07L 19.8773 -5.47256e-07ZM 3.97546 -5.47256e-07L 4.47546 -5.47256e-07L 4.47546 -0.500001L 3.97546 -0.500001L 3.97546 -5.47256e-07ZM 0 -0.500001C -0.276142 -0.500001 -0.5 -0.276143 -0.5 -5.47256e-07C -0.5 0.276142 -0.276142 0.499999 0 0.499999L 0 -0.500001ZM 24 -0.500001L 19.8773 -0.500001L 19.8773 0.499999L 24 0.499999L 24 -0.500001ZM 19.3773 -5.47256e-07L 19.3773 3.01266L 20.3773 3.01266L 20.3773 -5.47256e-07L 19.3773 -5.47256e-07ZM 19.3773 3.01266C 19.3773 7.02814 16.0798 10.2595 11.9264 10.2595L 11.9264 11.2595C 16.6074 11.2595 20.3773 7.60477 20.3773 3.01266L 19.3773 3.01266ZM 11.9264 10.2595C 7.77301 10.2595 4.47546 7.02814 4.47546 3.01266L 3.47546 3.01266C 3.47546 7.60477 7.2454 11.2595 11.9264 11.2595L 11.9264 10.2595ZM 4.47546 3.01266L 4.47546 -5.47256e-07L 3.47546 -5.47256e-07L 3.47546 3.01266L 4.47546 3.01266ZM 3.97546 -0.500001L 0 -0.500001L 0 0.499999L 3.97546 0.499999L 3.97546 -0.500001Z"/>
<path id="path2_stroke" d="M 0.5 -5.47256e-07C 0.5 -0.276143 0.276143 -0.500001 3.8147e-07 -0.500001C -0.276142 -0.500001 -0.5 -0.276143 -0.5 -5.47256e-07L 0.5 -5.47256e-07ZM -0.5 11.1899C -0.5 11.466 -0.276142 11.6899 3.8147e-07 11.6899C 0.276143 11.6899 0.5 11.466 0.5 11.1899L -0.5 11.1899ZM -0.5 -5.47256e-07L -0.5 11.1899L 0.5 11.1899L 0.5 -5.47256e-07L -0.5 -5.47256e-07Z"/>
<path id="path3_stroke" d="M -2.80837e-07 -0.499999C -0.276143 -0.499999 -0.5 -0.276142 -0.5 7.62939e-07C -0.5 0.276143 -0.276143 0.500001 -2.80837e-07 0.500001L -2.80837e-07 -0.499999ZM 5.59509 0.500001C 5.87123 0.500001 6.09509 0.276143 6.09509 7.62939e-07C 6.09509 -0.276142 5.87123 -0.499999 5.59509 -0.499999L 5.59509 0.500001ZM -2.80837e-07 0.500001L 5.59509 0.500001L 5.59509 -0.499999L -2.80837e-07 -0.499999L -2.80837e-07 0.500001Z"/>
</defs>
</svg>
