<svg width="64" height="64" viewBox="0 0 64 64" version="1.1" xmlns="http://www.w3.org/2000/svg" xmlns:xlink="http://www.w3.org/1999/xlink" xmlns:figma="http://www.figma.com/figma/ns">
<title>middleman</title>
<desc>Created using Figma</desc>
<g id="Canvas" transform="translate(-80 -80)" figma:type="canvas">
<mask id="mask0_alpha" mask-type="alpha">
<path d="M 80 80L 144 80L 144 144L 80 144L 80 80Z" fill="#FFFFFF"/>
</mask>
<g id="middleman" style="mix-blend-mode:normal;" mask="url(#mask0_alpha)" figma:type="frame">
<g id="Vector 17" style="mix-blend-mode:normal;" figma:type="vector">
<use xlink:href="#path0_stroke" transform="translate(102 94)" fill="#F2C94C" style="mix-blend-mode:normal;"/>
</g>
</g>
</g>
<defs>
<path id="path0_stroke" d="M 18 0L 18.4438 0.230217L 17.6195 -0.324405L 18 0ZM 0 21.1111L -0.380475 20.7867L -1.08339 21.6111L 0 21.6111L 0 21.1111ZM 11.76 21.1111L 12.2038 21.3413L 12.5826 20.6111L 11.76 20.6111L 11.76 21.1111ZM 3 38L 2.55615 37.7698L 3.38048 38.3244L 3 38ZM 21 16.8889L 21.3805 17.2133L 22.0834 16.3889L 21 16.3889L 21 16.8889ZM 9.24 16.8889L 8.79615 16.6587L 8.4174 17.3889L 9.24 17.3889L 9.24 16.8889ZM 17.6195 -0.324405L -0.380475 20.7867L 0.380475 21.4355L 18.3805 0.324405L 17.6195 -0.324405ZM 0 21.6111L 11.76 21.6111L 11.76 20.6111L 0 20.6111L 0 21.6111ZM 11.3162 20.8809L 2.55615 37.7698L 3.44385 38.2302L 12.2038 21.3413L 11.3162 20.8809ZM 3.38048 38.3244L 21.3805 17.2133L 20.6195 16.5645L 2.61952 37.6756L 3.38048 38.3244ZM 21 16.3889L 9.24 16.3889L 9.24 17.3889L 21 17.3889L 21 16.3889ZM 9.68385 17.1191L 18.4438 0.230217L 17.5562 -0.230217L 8.79615 16.6587L 9.68385 17.1191Z"/>
</defs>
</svg>
