<svg width="64" height="64" viewBox="0 0 64 64" version="1.1" xmlns="http://www.w3.org/2000/svg" xmlns:xlink="http://www.w3.org/1999/xlink" xmlns:figma="http://www.figma.com/figma/ns">
<title>netlify</title>
<desc>Created using Figma</desc>
<g id="Canvas" transform="translate(-9544 -10508)" figma:type="canvas">
<mask id="mask0_alpha" mask-type="alpha">
<path d="M 9544 10508L 9608 10508L 9608 10572L 9544 10572L 9544 10508Z" fill="#FFFFFF"/>
</mask>
<g id="netlify" style="mix-blend-mode:normal;" mask="url(#mask0_alpha)" figma:type="frame">
<g id="Vector 13" style="mix-blend-mode:normal;" figma:type="vector">
<use xlink:href="#path0_stroke" transform="translate(9569 10532)" fill="#6FCF97" style="mix-blend-mode:normal;"/>
</g>
<g id="Ellipse 8" style="mix-blend-mode:normal;" figma:type="ellipse">
<mask id="mask1_outline_ins">
<use xlink:href="#path1_fill" fill="white" transform="translate(9556 10520)"/>
</mask>
<g mask="url(#mask1_outline_ins)">
<use xlink:href="#path2_stroke_2x" transform="translate(9556 10520)" fill="#6FCF97" style="mix-blend-mode:normal;"/>
</g>
</g>
</g>
</g>
<defs>
<path id="path0_stroke" d="M -0.341106 6.16585C -0.543009 6.35424 -0.553965 6.67063 -0.365577 6.87253C -0.17719 7.07443 0.139203 7.08539 0.341106 6.897L -0.341106 6.16585ZM 7 0L 7.34111 -0.365577L 7 -0.68385L 6.65889 -0.365577L 7 0ZM 13.6589 6.897C 13.8608 7.08539 14.1772 7.07443 14.3656 6.87253C 14.554 6.67063 14.543 6.35424 14.3411 6.16585L 13.6589 6.897ZM 6.5 16C 6.5 16.2761 6.72386 16.5 7 16.5C 7.27614 16.5 7.5 16.2761 7.5 16L 6.5 16ZM 0.341106 6.897L 7.34111 0.365577L 6.65889 -0.365577L -0.341106 6.16585L 0.341106 6.897ZM 6.65889 0.365577L 13.6589 6.897L 14.3411 6.16585L 7.34111 -0.365577L 6.65889 0.365577ZM 6.5 0L 6.5 16L 7.5 16L 7.5 0L 6.5 0Z"/>
<path id="path1_fill" d="M 40 20C 40 31.0457 31.0457 40 20 40C 8.95431 40 0 31.0457 0 20C 0 8.95431 8.95431 0 20 0C 31.0457 0 40 8.95431 40 20Z"/>
<path id="path2_stroke_2x" d="M 39 20C 39 30.4934 30.4934 39 20 39L 20 41C 31.598 41 41 31.598 41 20L 39 20ZM 20 39C 9.50659 39 1 30.4934 1 20L -1 20C -1 31.598 8.40202 41 20 41L 20 39ZM 1 20C 1 9.50659 9.50659 1 20 1L 20 -1C 8.40202 -1 -1 8.40202 -1 20L 1 20ZM 20 1C 30.4934 1 39 9.50659 39 20L 41 20C 41 8.40202 31.598 -1 20 -1L 20 1Z"/>
</defs>
</svg>
