<svg width="64" height="64" viewBox="0 0 64 64" version="1.1" xmlns="http://www.w3.org/2000/svg" xmlns:xlink="http://www.w3.org/1999/xlink" xmlns:figma="http://www.figma.com/figma/ns">
<title>swipies</title>
<desc>Created using Figma</desc>
<g id="Canvas" transform="translate(-9384 -10428)" figma:type="canvas">
<mask id="mask0_alpha" mask-type="alpha">
<path d="M 9384 10428L 9448 10428L 9448 10492L 9384 10492L 9384 10428Z" fill="#FFFFFF"/>
</mask>
<g id="swipies" style="mix-blend-mode:normal;" mask="url(#mask0_alpha)" figma:type="frame">
<g id="Group" style="mix-blend-mode:normal;" figma:type="frame">
<g id="Rectangle 24" style="mix-blend-mode:normal;" figma:type="rounded-rectangle">
<mask id="mask1_outline_ins">
<use xlink:href="#path0_fill" fill="white" transform="translate(9416 10439)"/>
</mask>
<g mask="url(#mask1_outline_ins)">
<use xlink:href="#path1_stroke_2x" transform="translate(9416 10439)" fill="#2F80ED" style="mix-blend-mode:normal;"/>
</g>
</g>
<g id="Vector 11" style="mix-blend-mode:normal;" figma:type="vector">
<mask id="mask2_outline_ins">
<use xlink:href="#path2_fill" fill="white" transform="translate(9416 10479)"/>
</mask>
<g mask="url(#mask2_outline_ins)">
<use xlink:href="#path3_stroke_2x" transform="translate(9416 10479)" fill="#2F80ED" style="mix-blend-mode:normal;"/>
</g>
</g>
<g id="Rectangle 25" style="mix-blend-mode:normal;" figma:type="vector">
<mask id="mask3_outline_ins">
<use xlink:href="#path4_fill" fill="white" transform="translate(9417 10483)"/>
</mask>
<g mask="url(#mask3_outline_ins)">
<use xlink:href="#path5_stroke_2x" transform="translate(9417 10483)" fill="#2F80ED" style="mix-blend-mode:normal;"/>
</g>
</g>
<g id="Rectangle 26" style="mix-blend-mode:normal;" figma:type="rounded-rectangle">
<use xlink:href="#path6_fill" transform="translate(9414 10441)" fill="#2F80ED" style="mix-blend-mode:normal;"/>
</g>
<g id="Rectangle 27" style="mix-blend-mode:normal;" figma:type="rounded-rectangle">
<use xlink:href="#path7_fill" transform="translate(9414 10441)" fill="#2F80ED" style="mix-blend-mode:normal;"/>
</g>
<g id="Rectangle 28" style="mix-blend-mode:normal;" figma:type="rounded-rectangle">
<use xlink:href="#path8_fill" transform="translate(9417 10481)" fill="#2F80ED" style="mix-blend-mode:normal;"/>
</g>
<g id="Rectangle 29" style="mix-blend-mode:normal;" figma:type="rounded-rectangle">
<use xlink:href="#path9_fill" transform="translate(9416 10439)" fill="#2F80ED" style="mix-blend-mode:normal;"/>
</g>
</g>
</g>
</g>
<defs>
<path id="path0_fill" d="M 0 0L 3 0L 3 42L 0 42L 0 0Z"/>
<path id="path1_stroke_2x" d="M 0 0L 0 -1L -1 -1L -1 0L 0 0ZM 3 0L 4 0L 4 -1L 3 -1L 3 0ZM 3 42L 3 43L 4 43L 4 42L 3 42ZM 0 42L -1 42L -1 43L 0 43L 0 42ZM 0 1L 3 1L 3 -1L 0 -1L 0 1ZM 2 0L 2 42L 4 42L 4 0L 2 0ZM 3 41L 0 41L 0 43L 3 43L 3 41ZM 1 42L 1 0L -1 0L -1 42L 1 42Z"/>
<path id="path2_fill" d="M 3 0L 0 0L 0 2L 1 4L 2 4L 3 2L 3 0Z"/>
<path id="path3_stroke_2x" d="M 0 0L 0 -1L -1 -1L -1 0L 0 0ZM 3 0L 4 0L 4 -1L 3 -1L 3 0ZM 3 2L 3.89443 2.44721L 4 2.23607L 4 2L 3 2ZM 2 4L 2 5L 2.61803 5L 2.89443 4.44721L 2 4ZM 1 4L 0.105573 4.44721L 0.381966 5L 1 5L 1 4ZM 0 2L -1 2L -1 2.23607L -0.894427 2.44721L 0 2ZM 0 1L 3 1L 3 -1L 0 -1L 0 1ZM 2 0L 2 2L 4 2L 4 0L 2 0ZM 2.10557 1.55279L 1.10557 3.55279L 2.89443 4.44721L 3.89443 2.44721L 2.10557 1.55279ZM 2 3L 1 3L 1 5L 2 5L 2 3ZM 1.89443 3.55279L 0.894427 1.55279L -0.894427 2.44721L 0.105573 4.44721L 1.89443 3.55279ZM 1 2L 1 0L -1 0L -1 2L 1 2Z"/>
<path id="path4_fill" d="M 0 0L 1 0L 0.5 1L 0 0Z"/>
<path id="path5_stroke_2x" d="M 0 0L 0 -1L -1.61803 -1L -0.894427 0.447214L 0 0ZM 1 0L 1.89443 0.447214L 2.61803 -1L 1 -1L 1 0ZM 0.5 1L -0.394427 1.44721L 0.5 3.23607L 1.39443 1.44721L 0.5 1ZM 0 1L 1 1L 1 -1L 0 -1L 0 1ZM 0.105573 -0.447214L -0.394427 0.552786L 1.39443 1.44721L 1.89443 0.447214L 0.105573 -0.447214ZM 1.39443 0.552786L 0.894427 -0.447214L -0.894427 0.447214L -0.394427 1.44721L 1.39443 0.552786Z"/>
<path id="path6_fill" d="M 0 0L 2 0L 2 1L 0 1L 0 0Z"/>
<path id="path7_fill" d="M 0 0L 1 0L 1 10L 0 10L 0 0Z"/>
<path id="path8_fill" d="M 0 0L 1 0L 1 1L 0 1L 0 0Z"/>
<path id="path9_fill" d="M 0 0L 3 0L 3 2L 0 2L 0 0Z"/>
</defs>
</svg>
